<svg width="52" height="52" viewBox="0 0 52 52" fill="none"
    xmlns="http://www.w3.org/2000/svg">
    <path d="M26 52.0015C40.3594 52.0015 52 40.3609 52 26.0015C52 11.6421 40.3594 0.00146484 26 0.00146484C11.6406 0.00146484 0 11.6421 0 26.0015C0 40.3609 11.6406 52.0015 26 52.0015Z" fill="white"/>
    <path d="M38.2252 33.0022C29.9902 38.1022 21.7802 36.754 13.5382 33.092C14.9301 34.6967 16.7593 35.8612 18.8022 36.4431C18.1582 37.2521 17.5882 38.0119 16.9622 38.7229C16.7598 38.9088 16.4929 39.0088 16.2182 39.0012C13.7172 38.9645 11.2877 38.1615 9.25718 36.7009C7.14818 35.1559 6.78519 32.9521 7.12919 30.5061C7.57086 27.2168 8.38163 23.9878 9.54618 20.8801C10.3712 18.6937 11.8056 16.7895 13.6795 15.3933C15.5534 13.9971 17.7882 13.1673 20.1192 13.0022C20.4305 12.9937 20.7393 13.0604 21.0192 13.197C18.2265 13.9364 15.5983 15.1957 13.2722 16.9089C17.1832 15.1798 21.4102 14.2807 25.6863 14.2678C29.9625 14.2549 34.1949 15.1287 38.1162 16.8342C37.3852 16.3922 36.6742 15.9153 35.9162 15.5193C35.1272 15.1043 34.3072 14.739 33.4802 14.404C32.6532 14.069 31.8052 13.7963 30.9662 13.4973L30.9292 13.2322C31.3296 13.1192 31.7432 13.0595 32.1592 13.0549C34.3627 13.2327 36.4735 14.0189 38.2568 15.3254C40.04 16.6319 41.4256 18.4079 42.2592 20.4553C43.7869 23.985 44.7043 27.7484 44.9722 31.5852C45.0599 32.5732 44.8706 33.5659 44.4257 34.4524C43.9808 35.3389 43.2978 36.0841 42.4532 36.6042C40.4358 37.9752 38.0675 38.7384 35.6292 38.8039C35.197 38.7784 34.7895 38.5938 34.4852 38.2859C33.9099 37.6519 33.3671 36.9892 32.8592 36.3C34.933 35.7517 36.7993 34.6047 38.2252 33.0022ZM28.5562 27.802C28.5727 28.4541 28.7812 29.0871 29.1556 29.6213C29.5299 30.1555 30.0535 30.5673 30.6608 30.8054C31.2681 31.0435 31.9321 31.0971 32.5698 30.9597C33.2075 30.8223 33.7905 30.4996 34.2458 30.0325C34.7011 29.5653 35.0085 28.9747 35.1296 28.3337C35.2506 27.6928 35.1799 27.0299 34.9264 26.4289C34.6728 25.8279 34.2476 25.3154 33.704 24.9548C33.1604 24.5943 32.5225 24.4019 31.8702 24.4021C30.9833 24.4245 30.1403 24.7925 29.5211 25.428C28.9019 26.0634 28.5556 26.9148 28.5562 27.802ZM23.2562 27.8323C23.2318 27.1812 23.0161 26.5519 22.6361 26.0227C22.2561 25.4935 21.7285 25.0878 21.1194 24.8567C20.5102 24.6256 19.8465 24.579 19.2111 24.7229C18.5757 24.8668 17.9968 25.1952 17.5467 25.6662C17.0967 26.1373 16.7954 26.7305 16.6805 27.3718C16.5656 28.0131 16.6422 28.6737 16.9007 29.2717C17.1593 29.8697 17.5884 30.3785 18.1343 30.7341C18.6802 31.0897 19.3187 31.2765 19.9702 31.2712C20.86 31.2448 21.7037 30.8691 22.3191 30.2258C22.9345 29.5826 23.2722 28.7234 23.2592 27.8332L23.2562 27.8323Z" fill="#4D4D4D"/>
</svg>
