<svg width="52" height="52" viewBox="0 0 52 52" fill="none"
    xmlns="http://www.w3.org/2000/svg">
    <path d="M26 52C40.3594 52 52 40.3594 52 26C52 11.6406 40.3594 0 26 0C11.6406 0 0 11.6406 0 26C0 40.3594 11.6406 52 26 52Z" fill="white"/>
    <path d="M21.2926 34.3017C21.7936 33.4809 22.4025 32.9066 23.267 32.6497C24.5323 32.2733 25.6487 32.5469 26.5594 33.4847C26.8793 33.8136 27.0951 33.829 27.4779 33.6222C30.7151 31.8777 33.9613 30.1486 37.2139 28.4311C37.5941 28.2294 37.7187 28.0213 37.643 27.5768C37.3462 25.8323 38.4471 24.2908 40.234 23.8849C41.7742 23.5342 43.5136 24.5824 43.9503 26.1227C44.4411 27.8556 43.5752 29.6026 41.9155 30.1589C41.0073 30.4633 40.0927 30.4209 39.2551 29.9238C38.9391 29.7362 38.7066 29.7144 38.3803 29.893C34.9466 31.7685 31.5 33.6209 28.074 35.5092C27.8029 35.6582 27.5229 36 27.4651 36.2954C27.1812 37.738 26.0173 38.8659 24.5824 38.9866C23.0229 39.1177 21.642 38.2763 21.1821 36.8234C21.0279 36.3378 20.7672 36.0899 20.3433 35.8728C17.2615 34.2927 14.226 32.615 11.1019 31.1249C8.81013 30.0291 7.74005 26.869 8.0535 24.8291C8.27959 23.3531 9.02337 22.3601 10.3786 21.6947C16.0193 18.9238 21.6356 16.1002 27.2634 13.3011C28.0804 12.8951 28.9154 12.9054 29.7375 13.2972C33.7339 15.1972 37.729 17.1009 41.7241 19.0034C41.8397 19.0587 41.9823 19.0895 42.0645 19.1768C42.2842 19.4094 42.6323 19.6624 42.6388 19.9155C42.6452 20.1596 42.3407 20.5077 42.0838 20.6464C40.1865 21.6754 38.2673 22.6671 36.3519 23.6639C32.5971 25.6191 28.8319 27.555 25.0886 29.5333C24.1958 30.0047 23.4212 30.0561 22.5014 29.5577C19.0407 27.686 15.544 25.8824 12.0653 24.0468C10.737 23.3454 10.0202 23.7397 9.90589 25.2581C9.75559 27.248 10.5315 28.6482 12.267 29.5564C14.9749 30.9759 17.6777 32.4056 20.3831 33.8303C20.6644 33.978 20.9483 34.1232 21.2913 34.3004L21.2926 34.3017ZM41.8898 27.1041C41.8976 26.5312 41.4145 26.0366 40.8442 26.0315C40.2854 26.0263 39.7805 26.5273 39.7792 27.0874C39.7792 27.6501 40.27 28.1523 40.83 28.1626C41.3901 28.1729 41.8834 27.6809 41.8911 27.1054L41.8898 27.1041ZM25.3108 35.7559C25.3147 35.1996 24.8124 34.6987 24.2446 34.6922C23.6704 34.6845 23.1938 35.1688 23.1938 35.7572C23.1938 36.3391 23.6755 36.8298 24.2459 36.8247C24.8008 36.8208 25.3082 36.3121 25.3121 35.7559H25.3108Z" fill="#4D4D4D"/>
</svg>
