<svg width="52" height="52" viewBox="0 0 52 52" fill="none"
    xmlns="http://www.w3.org/2000/svg">
    <path d="M26 52C40.3594 52 52 40.3594 52 26C52 11.6406 40.3594 0 26 0C11.6406 0 0 11.6406 0 26C0 40.3594 11.6406 52 26 52Z" fill="white"/>
    <path d="M31.3102 39H21.7514C22.2868 38.8272 22.3817 38.4551 22.3684 37.991C22.3447 37.1243 22.3618 36.2567 22.3618 35.3578C21.2436 35.5666 20.1776 35.6549 19.1221 35.3436C17.9156 34.9866 17.0356 34.2519 16.5525 33.0739C16.1168 32.0117 15.5017 31.1033 14.4983 30.4816C14.2838 30.3487 14.1642 30.062 14 29.8456C14.2848 29.7583 14.579 29.576 14.8534 29.6016C16.0162 29.7089 16.8154 30.4075 17.4182 31.3511C17.9099 32.12 18.5136 32.737 19.4116 33.0113C20.3656 33.3027 21.2854 33.148 22.1852 32.7873C22.2735 32.7521 22.3836 32.6515 22.3979 32.567C22.5279 31.7687 22.8573 31.0682 23.3965 30.5195C22.3343 30.2519 21.2692 30.0715 20.2668 29.7146C17.6508 28.7824 16.226 26.8356 15.8168 24.1331C15.5435 22.3296 15.5112 20.5365 16.4661 18.8753C16.4898 18.8345 16.506 18.7889 16.5335 18.75C16.823 18.338 17.2673 17.9593 17.3612 17.5075C17.4552 17.0566 17.1657 16.5364 17.1049 16.039C16.991 15.0954 17.1666 14.1794 17.5065 13.3014C17.5568 13.1714 17.8102 13.0451 17.9706 13.0442C18.9616 13.0385 19.8425 13.4381 20.712 13.8595C20.9247 13.963 21.1496 14.0589 21.3319 14.2041C21.9403 14.6901 22.5611 14.7699 23.3433 14.5933C25.7534 14.0475 28.1721 14.1358 30.5774 14.7139C30.7872 14.7642 31.0767 14.6768 31.2723 14.5591C32.3174 13.9279 33.3805 13.3536 34.5927 13.0992C35.5362 12.9008 35.6169 12.9293 35.8808 13.8548C36.1997 14.973 36.2092 16.095 35.9226 17.2265C35.8789 17.3992 35.932 17.6631 36.045 17.7979C37.4195 19.4439 37.7195 21.3623 37.5021 23.4145C37.3796 24.5688 37.1243 25.6898 36.5595 26.7179C35.4802 28.6856 33.6947 29.6311 31.5959 30.1038C31.0131 30.2348 30.4189 30.3212 29.7744 30.4379C30.7919 31.5352 30.9011 32.8585 30.8831 34.2206C30.8669 35.4385 30.866 36.6573 30.8517 37.8752C30.847 38.2985 30.8631 38.7038 31.3681 38.8889C31.3491 38.926 31.3292 38.963 31.3102 39Z" fill="#4D4D4D"/>
</svg>
