<svg width="53" height="52" viewBox="0 0 53 52" fill="none"
    xmlns="http://www.w3.org/2000/svg">
    <path d="M26.5 52.0015C40.8594 52.0015 52.5 40.3609 52.5 26.0015C52.5 11.6421 40.8594 0.00146484 26.5 0.00146484C12.1406 0.00146484 0.5 11.6421 0.5 26.0015C0.5 40.3609 12.1406 52.0015 26.5 52.0015Z" fill="white"/>
    <path d="M22.71 38.9946V21.7119H27.838V23.8979C27.964 23.8329 28.027 23.8207 28.056 23.7827C29.0618 22.4979 30.4973 21.619 32.0991 21.3076C33.7008 20.9962 35.3611 21.2735 36.775 22.0879C37.5308 22.586 38.1569 23.2571 38.6011 24.0459C39.0453 24.8347 39.2949 25.7184 39.329 26.623C39.4537 27.6961 39.5134 28.7757 39.5079 29.856C39.5319 32.656 39.516 35.451 39.516 38.249V38.9707H34.116V38.2959C34.116 35.5409 34.129 32.7848 34.103 30.0298C34.0993 29.3316 34.0219 28.6355 33.8719 27.9536C33.8023 27.409 33.5369 26.9083 33.1253 26.5449C32.7137 26.1815 32.184 25.9806 31.6349 25.979C31.0257 25.8513 30.3912 25.9338 29.835 26.2134C29.2789 26.4929 28.8339 26.953 28.5729 27.5181C28.3231 28.1014 28.1808 28.7249 28.153 29.3589C28.097 32.3039 28.106 35.2498 28.092 38.1958C28.092 38.4468 28.092 38.6956 28.092 38.9956L22.71 38.9946Z" fill="#4D4D4D"/>
    <path d="M13.9204 39.002V21.7017H19.2414V39.002H13.9204Z" fill="#4D4D4D"/>
    <path d="M16.6192 13.002C17.4438 13.0083 18.2326 13.3398 18.8141 13.9244C19.3957 14.509 19.7231 15.2995 19.7252 16.1241C19.7186 16.9595 19.3832 17.7584 18.7915 18.3482C18.1998 18.938 17.3996 19.271 16.5642 19.275C16.1507 19.2677 15.7428 19.179 15.3637 19.0137C14.9846 18.8485 14.6419 18.61 14.3552 18.3121C14.0684 18.0141 13.8432 17.6625 13.6926 17.2774C13.5419 16.8923 13.4687 16.4814 13.4772 16.0679C13.4795 15.6595 13.5629 15.2559 13.7226 14.8799C13.8822 14.504 14.115 14.1632 14.4073 13.878C14.6996 13.5928 15.0456 13.3687 15.4253 13.2183C15.8051 13.0679 16.2109 12.9943 16.6192 13.002Z" fill="#4D4D4D"/>
</svg>
