<svg width="53" height="52" viewBox="0 0 53 52" fill="none"
    xmlns="http://www.w3.org/2000/svg">
    <path d="M26.5 52.0015C40.8594 52.0015 52.5 40.3609 52.5 26.0015C52.5 11.6421 40.8594 0.00146484 26.5 0.00146484C12.1406 0.00146484 0.5 11.6421 0.5 26.0015C0.5 40.3609 12.1406 52.0015 26.5 52.0015Z" fill="white"/>
    <path d="M17.3393 23.8237C19.8719 22.1352 22.834 21.2054 25.8773 21.1431C26.2286 19.4957 26.578 17.8538 26.9254 16.2178C27.0924 15.4288 27.2444 14.6366 27.4204 13.8486C27.5964 13.0606 27.8293 12.9138 28.6203 13.0688C30.1103 13.3598 31.5964 13.6781 33.0924 13.9351C33.2412 13.9496 33.3915 13.9339 33.5344 13.8896C33.6773 13.8453 33.8098 13.773 33.9243 13.6767C34.2624 13.3389 34.6981 13.116 35.1698 13.0391C35.6414 12.9621 36.1254 13.0352 36.5533 13.248C36.9637 13.4691 37.2938 13.814 37.4962 14.2339C37.6986 14.6538 37.7631 15.1272 37.6804 15.5859C37.5954 16.0575 37.3551 16.487 36.9978 16.8061C36.6404 17.1253 36.1864 17.3154 35.7083 17.3467C35.2311 17.4033 34.7492 17.2916 34.3459 17.0303C33.9427 16.7689 33.6435 16.3747 33.5003 15.916C33.4597 15.7476 33.3667 15.596 33.2346 15.4839C33.1025 15.3717 32.9381 15.3047 32.7653 15.292C31.4153 15.05 30.0744 14.7606 28.6594 14.4746L27.2374 21.2749C30.2482 21.3629 33.1724 22.3022 35.6713 23.9839C36.0897 23.6082 36.5975 23.3467 37.1462 23.2241C37.6949 23.1015 38.2659 23.1218 38.8043 23.2837C39.3716 23.4356 39.8832 23.7481 40.2778 24.1831C40.6724 24.6181 40.9333 25.1574 41.0294 25.7368C41.1529 26.3111 41.1101 26.9086 40.9061 27.4595C40.702 28.0103 40.3451 28.4915 39.8773 28.8467C39.666 29.0057 39.5231 29.2395 39.4774 29.5C39.4994 32.757 37.8563 35.038 35.2213 36.689C32.107 38.5806 28.4454 39.3657 24.8293 38.917C21.9167 38.7243 19.1313 37.6519 16.8413 35.8418C15.8714 35.125 15.0866 34.1871 14.5521 33.1059C14.0177 32.0248 13.749 30.8318 13.7683 29.626C13.7635 29.4956 13.7322 29.3673 13.6761 29.2495C13.62 29.1317 13.5405 29.0268 13.4423 28.9409C13.0681 28.7103 12.7453 28.405 12.494 28.0444C12.2426 27.6838 12.0681 27.2756 11.9812 26.8447C11.8943 26.4138 11.897 25.9694 11.989 25.5395C12.0809 25.1097 12.2603 24.7033 12.5159 24.3457C12.7715 23.9881 13.0979 23.6871 13.4748 23.4609C13.8517 23.2348 14.2711 23.0885 14.7069 23.0312C15.1427 22.9739 15.5857 23.0069 16.0083 23.1279C16.4308 23.249 16.824 23.4555 17.1633 23.7349C17.2073 23.7529 17.2513 23.7737 17.3393 23.8237ZM29.3393 28.5537C29.3435 28.8572 29.4076 29.157 29.5282 29.4355C29.6487 29.7141 29.8232 29.9659 30.0416 30.1768C30.2599 30.3876 30.5179 30.5534 30.8005 30.6641C31.0831 30.7747 31.3848 30.8283 31.6883 30.8218C32.1183 30.7962 32.5316 30.6462 32.8776 30.3896C33.2237 30.1331 33.4875 29.781 33.6369 29.3769C33.7863 28.9729 33.8149 28.5342 33.7191 28.1142C33.6232 27.6943 33.4071 27.3114 33.0972 27.0122C32.7873 26.713 32.397 26.5102 31.974 26.4292C31.5509 26.3481 31.1133 26.3922 30.7148 26.5557C30.3163 26.7192 29.974 26.9953 29.7297 27.3501C29.4854 27.7049 29.3498 28.1231 29.3393 28.5537ZM21.2623 26.2788C20.693 26.2931 20.152 26.53 19.7553 26.9385C19.3586 27.347 19.1377 27.8949 19.1401 28.4643C19.1424 29.0338 19.3679 29.5796 19.768 29.9849C20.168 30.3901 20.711 30.6222 21.2804 30.6318C21.5701 30.6367 21.8578 30.5838 22.1268 30.4761C22.3957 30.3683 22.6405 30.208 22.8466 30.0044C23.0528 29.8008 23.2163 29.5581 23.3275 29.2905C23.4387 29.023 23.4953 28.736 23.4941 28.4463C23.4929 28.1565 23.4339 27.8697 23.3205 27.603C23.2071 27.3364 23.0416 27.0954 22.8337 26.8935C22.6258 26.6917 22.3798 26.5333 22.1099 26.4277C21.8401 26.3222 21.5519 26.2715 21.2623 26.2788ZM26.4094 36.1787C28.3181 36.2987 30.2069 35.7341 31.7363 34.5859C31.9173 34.4529 31.9363 34.102 32.0363 33.852C31.7713 33.762 31.5012 33.6877 31.2274 33.6299C31.1404 33.6149 31.0273 33.7466 30.9273 33.8076C29.6193 34.663 28.0902 35.1186 26.5273 35.1186C24.9644 35.1186 23.4353 34.663 22.1273 33.8076C21.7273 33.5736 21.3353 33.3377 21.0273 33.8467C20.7393 34.3257 21.1434 34.5758 21.4874 34.7998C22.9425 35.7622 24.6619 36.2455 26.4054 36.1826L26.4094 36.1787Z" fill="#4D4D4D"/>
</svg>
