<svg width="52" height="52" viewBox="0 0 52 52" fill="none"
    xmlns="http://www.w3.org/2000/svg">
    <path d="M26 52C40.3594 52 52 40.3594 52 26C52 11.6406 40.3594 0 26 0C11.6406 0 0 11.6406 0 26C0 40.3594 11.6406 52 26 52Z" fill="white"/>
    <path d="M27.1313 22.5524C28.1981 21.3127 29.2284 20.1144 30.2594 18.9161C31.8823 17.0301 33.502 15.1401 35.1371 13.2647C35.2573 13.1267 35.4903 13.0276 35.6762 13.0179C36.2786 12.987 36.8834 13.0065 37.5881 13.0065C34.4016 16.7119 31.2759 20.3458 28.1242 24.0097C31.5381 28.9791 34.9488 33.9437 38.3911 38.9529C38.2547 38.9691 38.1572 38.9894 38.0606 38.9902C35.7606 38.9919 33.4606 38.9854 31.1606 39C30.8797 39.0016 30.7579 38.8709 30.6223 38.6728C28.4741 35.5406 26.3203 32.4117 24.168 29.282C24.0925 29.1724 24.0146 29.0652 23.909 28.915C23.3513 29.5612 22.8163 30.1815 22.282 30.8018C20.0153 33.4363 17.747 36.07 15.4851 38.7093C15.313 38.9107 15.1401 39.0081 14.8665 38.9984C14.2763 38.9764 13.6844 38.9919 13 38.9919C13.3215 38.6127 13.5854 38.2977 13.8533 37.9868C16.7727 34.5932 19.6898 31.1972 22.6198 27.8133C22.8593 27.5373 22.8682 27.3676 22.6596 27.0648C19.5193 22.5151 16.392 17.9556 13.2622 13.3978C13.1884 13.2907 13.1202 13.1786 13.0097 13.0065H13.4157C15.6751 13.0065 17.9345 13.0114 20.1939 13C20.4692 12.9984 20.6267 13.0869 20.7809 13.3126C22.7943 16.2588 24.8183 19.1978 26.8399 22.1392C26.9235 22.261 27.0103 22.3811 27.1313 22.5524ZM35.3125 37.3746C35.2427 37.2512 35.2199 37.2025 35.1899 37.1595C30.0102 29.7488 24.8297 22.3373 19.6411 14.9331C19.5591 14.8162 19.3658 14.7163 19.2229 14.7139C18.2763 14.6944 17.3289 14.7025 16.3822 14.7057C16.2986 14.7057 16.215 14.7317 16.0973 14.7512C16.1963 14.9006 16.2678 15.0134 16.3441 15.123C17.8225 17.2396 19.3009 19.3553 20.7809 21.471C24.4213 26.6767 28.0617 31.8832 31.707 37.0848C31.7906 37.2041 31.9351 37.36 32.0545 37.3625C33.1188 37.3844 34.1832 37.3754 35.3133 37.3754L35.3125 37.3746Z" fill="#4D4D4D"/>
</svg>
