<svg width="52" height="52" viewBox="0 0 52 52" fill="none"
    xmlns="http://www.w3.org/2000/svg">
    <path d="M26 52.0015C40.3594 52.0015 52 40.3609 52 26.0015C52 11.6421 40.3594 0.00146484 26 0.00146484C11.6406 0.00146484 0 11.6421 0 26.0015C0 40.3609 11.6406 52.0015 26 52.0015Z" fill="white"/>
    <path d="M10.2168 36.2059C13.5547 36.3866 16.849 35.3806 19.5168 33.3665C18.1665 33.2883 16.8698 32.811 15.7911 31.995C14.7124 31.1789 13.9004 30.0607 13.4578 28.7826H16.1248L16.1718 28.6287C14.7664 28.2457 13.5173 27.4297 12.6018 26.2967C11.6893 25.1537 11.1891 23.7363 11.1818 22.2738L13.7988 22.9935L13.8988 22.8065C12.609 21.838 11.7143 20.4348 11.3808 18.8568C11.04 17.2748 11.3044 15.6226 12.1218 14.2259C13.7473 16.2188 15.7686 17.8526 18.0579 19.0243C20.3472 20.1959 22.8547 20.8796 25.4218 21.0326C25.4468 19.9414 25.5588 18.854 25.7568 17.7806C26.0488 16.7138 26.6084 15.7394 27.3826 14.9495C28.1569 14.1597 29.12 13.5806 30.1808 13.2674C31.2416 12.9542 32.3647 12.9169 33.4438 13.1595C34.523 13.4021 35.5222 13.9165 36.3468 14.6536C36.4804 14.8078 36.6592 14.9161 36.8578 14.9627C37.0563 15.0094 37.2645 14.9924 37.4528 14.9139C38.5738 14.4989 39.7038 14.1057 40.7988 13.7137C40.7128 14.5557 40.0218 15.5139 38.4708 17.0409C39.0118 16.9279 39.5598 16.8406 40.0918 16.6956C40.6238 16.5506 41.1418 16.3545 41.7918 16.1405C41.0575 17.273 40.1329 18.2703 39.0588 19.0877C38.8991 19.1949 38.7715 19.3434 38.6896 19.5174C38.6077 19.6914 38.5746 19.8842 38.5938 20.0755C38.6535 23.384 37.8291 26.6487 36.2056 29.5321C34.5822 32.4154 32.2185 34.8128 29.3588 36.4774C26.499 38.142 23.2468 39.0136 19.9378 39.0013C16.6289 38.989 13.3832 38.0934 10.5358 36.4076C10.4198 36.3466 10.3198 36.2739 10.2168 36.2059Z" fill="#4D4D4D"/>
</svg>
