<svg width="52" height="52" viewBox="0 0 52 52" fill="none"
    xmlns="http://www.w3.org/2000/svg">
    <path d="M26 52.0015C40.3594 52.0015 52 40.3609 52 26.0015C52 11.6421 40.3594 0.00146484 26 0.00146484C11.6406 0.00146484 0 11.6421 0 26.0015C0 40.3609 11.6406 52.0015 26 52.0015Z" fill="white"/>
    <path d="M26.0729 39.0037C21.6509 38.7587 17.2019 38.5704 12.7629 38.2424C11.6017 38.2533 10.4797 37.8232 9.62346 37.0388C8.76721 36.2544 8.24059 35.1741 8.14995 34.0164C7.53627 30.2209 7.36846 26.3669 7.64995 22.5325C7.72143 20.9737 7.88598 19.4207 8.14287 17.8816C8.62687 15.1326 10.121 13.7937 12.91 13.5227C19.4687 12.9804 26.0548 12.8487 32.6299 13.1287C34.6499 13.1847 36.6679 13.3405 38.6819 13.5085C41.9489 13.7815 43.4819 15.1273 43.9289 18.3513C44.6717 23.5568 44.6381 28.8437 43.8289 34.0393C43.7452 35.1702 43.2409 36.2291 42.4153 37.0066C41.5897 37.784 40.5029 38.2238 39.3689 38.2395C34.9549 38.5695 30.5309 38.7557 26.0729 39.0037ZM22.3559 31.4236L31.9059 25.9158L22.3559 20.4158V31.4236Z" fill="#4D4D4D"/>
</svg>
