<svg width="17" height="20" viewBox="0 0 17 20" fill="none"
    xmlns="http://www.w3.org/2000/svg">
    <path d="M0 19.0423C0 18.7324 0.114083 18.4789 0.313729 18.2254L7.18726 9.80282L0.798584 1.85915C0.0855626 1.09859 0.598938 0 1.51161 0C1.88238 0 2.22463 0.169014 2.48131 0.507042L8.52774 8.22535L14.7453 0.450705C15.002 0.140845 15.2872 0 15.6009 0C16.1998 0 16.6277 0.422535 16.6277 0.985916C16.6277 1.23944 16.5421 1.49296 16.3425 1.74648L9.83969 9.71831L16.6847 18.1972C17.3692 18.9296 16.8558 20 15.9432 20C15.5724 20 15.2587 19.831 15.002 19.493L8.47069 11.2958L1.93942 19.4648C1.71125 19.831 1.39752 20 0.99823 20C0.399292 20 0 19.6056 0 19.0423Z" fill="black"/>
</svg>
