<svg width="135" height="261" viewBox="0 0 135 261" fill="none"
    xmlns="http://www.w3.org/2000/svg">
    <path opacity="0.25" d="M49.179 175.412C55.1015 169.491 59.7996 162.462 63.0049 154.725C66.2102 146.989 67.86 138.696 67.86 130.322C67.86 121.948 66.2102 113.655 63.0049 105.919C59.7996 98.1819 55.1015 91.1522 49.179 85.2316C43.2643 79.3016 36.2361 74.5992 28.4982 71.3941C20.7604 68.1891 12.4654 66.5448 4.09 66.5558C2.72 66.5558 1.35 66.5959 0 66.6959V0.385848C1.36 0.345848 2.72 0.325789 4.09 0.325789C21.1654 0.303988 38.077 3.65584 53.8531 10.1891C69.6293 16.7223 83.9593 26.308 96.02 38.3956C120.396 62.7778 134.09 95.8437 134.09 130.321C134.09 164.798 120.396 197.864 96.02 222.246C83.9611 234.336 69.6317 243.925 53.8552 250.46C38.0788 256.995 21.1664 260.348 4.09 260.326C2.72 260.326 1.36 260.306 0 260.266V193.946C1.35 194.046 2.72 194.086 4.09 194.086C12.4653 194.097 20.7604 192.454 28.4983 189.249C36.2362 186.044 43.2645 181.342 49.179 175.412Z" fill="#4D4D4D"/>
</svg>
