<svg width="1919" height="1280" viewBox="0 0 1919 1280" fill="none"
    xmlns="http://www.w3.org/2000/svg">
    <g style="mix-blend-mode:soft-light" opacity="0.07">
        <path d="M439.89 -825.241C439.89 -825.241 677.142 -283.4 335.516 397.505C-6.1102 1078.41 480.571 1581.63 1134.67 1585.66" stroke="#666666" stroke-opacity="0.25" stroke-miterlimit="10"/>
    </g>
    <g style="mix-blend-mode:soft-light" opacity="0.1">
        <path d="M598.24 -660.73C598.24 -660.73 841.194 -301.737 625.44 117.088C409.686 535.913 88.7599 1001.88 969.924 1422.52" stroke="#666666" stroke-miterlimit="10"/>
    </g>
    <g style="mix-blend-mode:soft-light">
        <path d="M716.978 2057.56C707.912 2048.5 -189.435 1749.63 60.5879 1114.81C310.611 479.976 119.88 193.649 -416.473 -154.143" stroke="#666666" stroke-miterlimit="10"/>
    </g>
    <g style="mix-blend-mode:soft-light" opacity="0.07">
        <path d="M2399.32 -1051.4C2399.32 -1051.4 2417.33 -460.171 1846.36 44.1521C1275.39 548.475 1539.23 1196.92 2144.61 1444.65" stroke="#666666" stroke-opacity="0.25" stroke-miterlimit="10"/>
    </g>
    <g style="mix-blend-mode:soft-light">
        <path d="M2538.12 -754.066C2538.12 -754.066 2629.62 -330.356 2273.2 -22.2469C1916.79 285.862 1445.21 598.481 2105.86 1317.46" stroke="#666666" stroke-miterlimit="10"/>
    </g>
    <g style="mix-blend-mode:soft-light" opacity="0.1">
        <path d="M1825.82 1412.33C1820.79 1400.54 945.52 843.722 1414.31 347.982C1883.1 -147.758 1812.94 -484.566 1445.04 -1007.33" stroke="#666666" stroke-miterlimit="10"/>
    </g>
</svg>
