<svg width="208" height="181" viewBox="0 0 208 181" fill="none"
    xmlns="http://www.w3.org/2000/svg">
    <path d="M105.027 180.354C74.0866 180.354 43.1476 180.343 12.2103 180.319C5.03528 180.314 0.572234 175.819 0.561234 168.601C0.508234 130.108 0.508234 90.659 0.561234 51.348C0.572234 44.135 5.03028 39.64 12.1973 39.617C22.9639 39.5817 33.7306 39.5665 44.4973 39.5711C55.6793 39.5711 66.8613 39.5791 78.0433 39.5951L82.7872 39.6009C84.8552 39.6009 88.3343 40.155 88.3983 43.825C88.4347 44.3426 88.3647 44.8619 88.1928 45.3514C88.0208 45.8409 87.7504 46.2897 87.3983 46.6707C86.0522 47.7797 84.3292 48.3244 82.5903 48.1908C72.315 48.2021 62.0383 48.2066 51.7603 48.2039H9.31923V79.2347C9.31923 79.2347 65.5802 79.2347 81.0192 79.2347C81.3872 79.2347 81.7583 79.2262 82.1303 79.2162C82.4623 79.2072 82.7953 79.1991 83.1303 79.1991C83.6461 79.1865 84.1618 79.2275 84.6693 79.3211C88.0453 80.0271 88.3952 82.1398 88.3632 83.6668C88.3342 85.0928 87.9253 87.0671 84.7193 87.7411C84.1831 87.84 83.6383 87.8831 83.0933 87.87C82.7773 87.87 82.4603 87.8618 82.1433 87.8548C81.7933 87.8468 81.4432 87.8387 81.0952 87.8387C67.2662 87.8387 9.49526 87.8387 9.49526 87.8387V171.448H198.767V152.906C198.767 143.484 198.773 134.062 198.783 124.64C198.789 122.497 199.347 118.902 203.03 118.902H203.193C206.637 119.002 207.366 122.049 207.372 124.589C207.401 138.027 207.434 153.258 207.364 168.34C207.329 175.834 202.911 180.31 195.544 180.316C165.368 180.341 135.196 180.354 105.027 180.354Z" fill="#CCCCCC"/>
    <path d="M156.344 127.014C155.84 127.049 155.336 126.961 154.873 126.759C140.914 118.99 125.321 108.718 115.492 91.4358C109.611 81.0968 106.691 69.1018 106.308 53.6848C106.24 50.8918 106.259 48.0309 106.277 45.2649C106.285 43.9649 106.295 42.665 106.295 41.365V39.0569H106.259L106.269 36.5447C106.285 32.8387 106.299 29.0068 106.23 25.2268C106.103 24.0288 106.392 22.8236 107.047 21.8127C107.702 20.8019 108.685 20.0466 109.831 19.6736C113.905 17.9329 117.976 16.1862 122.044 14.4329C132.551 9.91286 143.417 5.23867 154.164 0.815674C155.875 0.207275 157.744 0.207275 159.456 0.815674C175.832 7.55667 190.295 13.7717 203.674 19.8157C205.323 20.5597 207.083 22.8408 207.09 23.6438C207.124 26.8928 207.203 30.1437 207.281 33.3997C207.581 45.9107 207.888 58.848 205.495 71.344C202.11 89.01 192.523 103.477 176.188 115.57C170.97 119.446 165.515 122.992 159.855 126.187C158.764 126.732 157.562 127.015 156.344 127.014ZM114.893 46.8616C114.893 48.8156 114.893 50.7693 114.893 52.7219C114.787 76.8669 124.07 95.6478 142.483 108.542C145.033 110.327 147.029 111.833 148.633 113.042C152.307 115.817 154.333 117.342 156.81 117.342C159.3 117.342 161.237 115.878 165.097 112.964C166.711 111.744 168.719 110.226 171.278 108.429C185.939 98.129 194.439 85.499 196.542 70.887C197.98 60.897 198.182 50.6328 198.376 40.7068C198.443 37.2498 198.512 33.793 198.63 30.345C198.706 28.104 196.294 25.9769 194.64 25.2449C185.284 21.1159 172.947 15.7179 160.488 10.5979C159.344 10.153 158.126 9.93271 156.899 9.94897C155.575 9.94238 154.26 10.1794 153.021 10.6487C147.133 12.9857 141.247 15.5577 135.553 18.0427C133.897 18.7681 132.239 19.4904 130.581 20.2097C129.281 20.7727 127.806 21.2458 126.243 21.7458C122.243 23.0259 118.108 24.3459 116.104 27.5569C114.061 30.8279 114.491 35.1489 114.904 39.3289C114.986 40.1589 115.066 40.9658 115.126 41.7468H114.891L114.893 46.8616Z" fill="#CCCCCC"/>
    <path d="M44.4523 127.526C40.291 127.526 36.131 127.505 31.9723 127.461C30.537 127.525 29.135 127.017 28.0723 126.05C27.7053 125.66 27.4209 125.199 27.2362 124.696C27.0514 124.193 26.9702 123.658 26.9973 123.123C27.0553 119.392 30.6413 118.922 32.1803 118.896C33.7663 118.868 35.3533 118.859 36.9413 118.859C38.1943 118.859 39.4473 118.866 40.6993 118.87C41.9513 118.874 43.2173 118.88 44.4773 118.88C45.7373 118.88 46.9913 118.881 48.2483 118.871C49.5053 118.861 50.7483 118.859 51.9993 118.859C53.5913 118.859 55.1823 118.868 56.7733 118.896C58.3143 118.922 61.9033 119.388 61.9733 123.115C62.0009 123.651 61.9202 124.187 61.7358 124.691C61.5514 125.195 61.2673 125.657 60.9003 126.048C59.8419 127.014 58.4445 127.521 57.0133 127.46C52.8259 127.505 48.639 127.527 44.4523 127.526Z" fill="#CCCCCC"/>
    <path d="M150.135 81.2842C148.419 81.2842 147.049 79.827 146.202 78.605C142.402 73.127 138.374 67.0891 133.877 60.1461C133.046 58.8631 131.461 55.6552 134.654 53.5582C135.329 53.082 136.129 52.8157 136.954 52.793C138.77 52.793 140.187 54.267 141.054 55.503C142.76 57.935 144.429 60.437 146.196 63.087C147.031 64.338 147.896 65.631 148.796 66.98L150.549 69.5801L152.512 67.129C154.342 64.8443 156.146 62.5778 157.924 60.3292C162.842 54.1292 167.486 48.2669 172.418 42.5079C173.718 41.0522 175.503 40.1183 177.44 39.8799C178.059 39.8641 178.668 40.0302 179.194 40.357C179.719 40.6838 180.137 41.1575 180.396 41.7193C180.759 42.5945 180.875 43.5523 180.732 44.4888C180.588 45.4254 180.191 46.3049 179.582 47.0313C175.751 51.9863 171.748 56.9553 167.876 61.7613C166.21 63.828 164.547 65.8973 162.889 67.9693C162.001 69.0793 161.118 70.1922 160.238 71.3082C158.259 73.8082 156.213 76.3951 154.143 78.8721C153.225 79.9721 151.782 81.2842 150.135 81.2842Z" fill="#CCCCCC"/>
</svg>
