<svg width="146" height="180" viewBox="0 0 146 180" fill="none"
    xmlns="http://www.w3.org/2000/svg">
    <g clip-path="url(#clip0_162_20)">
        <path d="M79.8826 103.667C79.8826 119.895 79.8846 136.124 79.8746 152.352C79.8746 153.006 79.9145 153.744 79.6412 154.299C79.1723 155.259 78.3403 155.817 77.1611 155.809C72.7057 155.782 68.2483 155.801 63.7929 155.801C43.7745 155.801 23.7541 155.801 3.73566 155.801C1.93195 155.801 1.15978 155.347 0.623059 153.918C0.487381 153.557 0.455457 153.142 0.455457 152.751C0.449472 126.511 0.451467 100.273 0.4375 74.0359C0.4375 72.8507 0.870471 71.9049 1.67256 71.1028C6.79039 65.989 11.9182 60.8831 17.04 55.7733C17.9758 54.8395 18.9375 53.9257 19.8314 52.952C20.7273 51.9743 21.7808 51.6311 23.1056 51.6351C34.712 51.6691 46.3164 51.6551 57.9228 51.6551C64.1739 51.6551 70.4271 51.7169 76.6782 51.6232C78.871 51.5912 79.9165 52.8123 79.9085 54.8834C79.8567 71.1448 79.8806 87.4061 79.8806 103.667H79.8826ZM74.655 103.661C74.655 88.5354 74.655 73.4094 74.655 58.2813C74.655 56.8966 74.6371 56.8767 73.2683 56.8767C57.6435 56.8767 42.0186 56.8767 26.3938 56.8767C24.9891 56.8767 24.9652 56.8986 24.9652 58.2394C24.9632 63.0939 24.9652 67.9464 24.9632 72.8008C24.9632 75.1971 23.9875 76.1768 21.6032 76.1788C16.8166 76.1828 12.0279 76.1788 7.24132 76.1808C6.37006 76.1808 5.9331 76.6137 5.93044 77.4797C5.93044 101.349 5.93044 125.22 5.93044 149.089C5.93044 150.46 5.93443 150.468 7.32313 150.468C29.231 150.468 51.1389 150.468 73.0489 150.468C74.6191 150.468 74.659 150.422 74.659 148.84C74.659 133.78 74.659 118.72 74.659 103.659L74.655 103.661ZM10.2901 70.622C10.5135 70.6459 10.7669 70.6958 11.0183 70.6958C13.5743 70.7018 16.1302 70.6719 18.6861 70.7158C19.5421 70.7297 19.7675 70.3866 19.7556 69.5964C19.7236 67.1403 19.7476 64.6841 19.7396 62.228C19.7396 61.9147 19.6797 61.6014 19.6538 61.3361C16.5193 64.4447 13.4286 67.5094 10.2901 70.624V70.622Z" fill="white"/>
        <path d="M145.59 35.639C145.59 40.6591 145.568 45.6772 145.602 50.6972C145.614 52.5847 144.974 53.9036 143.234 54.8913C134.78 59.6878 126.392 64.6002 117.964 69.4427C114.424 71.4758 114.548 71.6614 110.953 69.5624C105.246 66.2323 99.5098 62.9501 93.7874 59.6479C90.8643 57.962 87.9612 56.24 85.0162 54.596C83.7453 53.8876 83.1626 52.89 83.1626 51.4594C83.1706 40.8885 83.1726 30.3197 83.1606 19.7488C83.1606 18.1586 83.8809 17.1091 85.2457 16.3349C89.8467 13.7251 94.4179 11.0675 98.999 8.42175C103.522 5.80796 108.057 3.21612 112.553 0.554453C113.808 -0.189777 114.893 -0.179801 116.142 0.546472C124.804 5.58449 133.485 10.5826 142.162 15.5947C142.707 15.9079 143.266 16.1973 143.796 16.5325C145.135 17.3785 145.59 18.6694 145.59 20.1818C145.59 25.3335 145.59 30.4853 145.59 35.639ZM91.411 19.0904C91.8181 19.4016 92.0994 19.669 92.4246 19.8586C94.4817 21.0537 96.5508 22.2269 98.6119 23.4141C103.628 26.3032 108.636 29.2063 113.672 32.0595C114.013 32.2531 114.652 32.2591 114.991 32.0675C121.665 28.2865 128.315 24.4656 134.965 20.6407C135.72 20.2077 136.438 19.7129 137.252 19.1961C136.973 18.9507 136.843 18.7951 136.679 18.6993C134.435 17.3745 132.188 16.0496 129.933 14.7407C124.983 11.8695 120.021 9.02032 115.083 6.13119C114.504 5.79399 114.097 5.84587 113.55 6.16511C108.61 9.05225 103.648 11.9075 98.7017 14.7846C96.3074 16.1773 93.931 17.5979 91.409 19.0884L91.411 19.0904ZM140.139 24.0506C139.728 24.2022 139.479 24.2561 139.269 24.3758C132.08 28.514 124.889 32.6481 117.728 36.8322C117.379 37.0357 117.104 37.6742 117.102 38.1112C117.064 46.2179 117.074 54.3266 117.08 62.4333C117.08 62.7765 117.146 63.1197 117.196 63.5906C117.693 63.3451 118.05 63.1935 118.383 63C125.31 59.0035 132.226 54.989 139.169 51.0205C139.908 50.5975 140.163 50.1425 140.161 49.3045C140.131 41.3295 140.143 33.3565 140.143 25.3814C140.143 24.9943 140.143 24.6073 140.143 24.0486L140.139 24.0506ZM111.533 63.6704C111.579 63.1596 111.627 62.8723 111.627 62.583C111.631 54.4084 111.621 46.2358 111.645 38.0613C111.647 37.3569 111.378 36.9759 110.795 36.6506C108.951 35.6231 107.128 34.5576 105.3 33.5021C100.118 30.5112 94.9446 27.5124 89.755 24.5354C88.6656 23.9109 88.5718 23.9847 88.5718 25.2398C88.5678 33.3146 88.5798 41.3874 88.5538 49.4622C88.5518 50.2443 88.8551 50.6374 89.5056 51.0105C95.4754 54.4224 101.425 57.8722 107.383 61.306C108.714 62.0722 110.053 62.8264 111.533 63.6684V63.6704Z" fill="white"/>
        <path d="M117.072 127.936C117.072 144.03 117.074 160.123 117.062 176.215C117.062 176.836 116.965 177.468 116.813 178.071C116.553 179.1 115.835 179.697 114.806 179.904C114.482 179.97 114.147 179.994 113.816 179.994C89.9747 179.998 66.1354 179.998 42.2941 179.992C41.899 179.992 41.494 179.952 41.1129 179.854C39.8219 179.521 39.1455 178.685 39.1415 177.35C39.1276 172.163 39.1555 166.977 39.1236 161.789C39.1136 160.189 40.4464 159.13 41.7912 159.148C43.0503 159.164 44.3551 160.205 44.3412 161.801C44.3053 165.624 44.3332 169.449 44.3412 173.272C44.3432 174.507 44.405 174.577 45.6341 174.577C67.2467 174.579 88.8593 174.575 110.472 174.595C111.38 174.595 111.651 174.32 111.651 173.4C111.629 143.042 111.629 112.684 111.651 82.3264C111.651 81.4265 111.414 81.1432 110.486 81.1472C102.639 81.1811 94.7912 81.1671 86.9439 81.1671C85.7288 81.1671 84.8369 80.5965 84.3161 79.535C83.8353 78.5553 84.0687 77.0988 84.8848 76.5182C85.4734 76.0992 86.2575 75.7261 86.9559 75.7221C96.0003 75.6702 105.045 75.6762 114.087 75.6961C115.841 75.7001 116.925 76.8314 117.062 78.6591C117.092 79.0562 117.074 79.4572 117.074 79.8563C117.074 95.8821 117.074 111.91 117.074 127.936H117.072Z" fill="white"/>
        <path d="M92.4728 164.573C90.6492 164.573 88.8235 164.581 86.9998 164.571C85.2959 164.563 84.1087 163.444 84.0967 161.857C84.0868 160.303 85.2161 159.134 86.8821 159.118C90.5973 159.084 94.3144 159.06 98.0276 159.128C99.967 159.164 100.817 160.518 100.899 161.839C100.989 163.282 99.534 164.563 97.9458 164.571C96.1222 164.581 94.2965 164.573 92.4728 164.573Z" fill="white"/>
        <path d="M92.4346 151.57C90.607 151.57 88.7813 151.582 86.9537 151.568C85.2337 151.554 84.1044 150.5 84.0905 148.93C84.0765 147.32 85.1001 146.272 86.8659 146.254C90.585 146.215 94.3062 146.244 98.0253 146.24C99.0589 146.24 99.9109 146.584 100.458 147.503C101.525 149.301 100.322 151.51 98.2129 151.56C96.2875 151.606 94.3601 151.57 92.4346 151.57Z" fill="white"/>
        <path d="M92.4747 107.359C94.3343 107.359 96.1939 107.347 98.0535 107.361C99.498 107.373 100.334 108.023 100.829 109.464C101.124 110.324 100.655 111.477 99.6556 112.201C99.3803 112.401 99.0052 112.564 98.674 112.566C94.5298 112.592 90.3857 112.638 86.2455 112.554C84.9586 112.528 84.2124 111.529 84.1186 110.238C83.9989 108.604 85.0564 107.393 86.6965 107.365C88.6219 107.333 90.5493 107.357 92.4747 107.357V107.359Z" fill="white"/>
        <path d="M92.3808 138.529C90.4873 138.529 88.5958 138.548 86.7023 138.521C85.0782 138.497 84.0746 137.457 84.0885 135.903C84.0985 134.63 85.0343 133.261 86.7183 133.287C90.5352 133.349 94.3561 133.295 98.175 133.313C99.7194 133.321 101.036 134.562 100.899 135.977C100.779 137.226 100.013 138.57 98.1591 138.538C96.2336 138.505 94.3082 138.531 92.3808 138.531V138.529Z" fill="white"/>
        <path d="M92.5087 120.342C94.4042 120.342 96.2997 120.372 98.1952 120.332C99.8692 120.296 100.791 121.653 100.903 122.954C101.017 124.262 99.7495 125.529 98.3129 125.541C94.3903 125.573 90.4656 125.521 86.5429 125.563C85.0784 125.579 84.0868 124.294 84.1027 122.975C84.1227 121.463 85.1383 120.366 86.6207 120.348C88.5821 120.324 90.5454 120.342 92.5067 120.342H92.5087Z" fill="white"/>
        <path d="M41.7315 86.7719C35.2828 86.7719 28.8361 86.7739 22.3875 86.7679C21.2721 86.7679 20.1149 85.9538 19.8395 85.034C19.4764 83.8129 19.8056 82.528 20.8332 81.9454C21.4676 81.5842 22.2657 81.3428 22.992 81.3408C35.4883 81.3049 47.9846 81.2889 60.4809 81.3408C62.4861 81.3488 63.779 82.2726 63.7052 84.1501C63.6454 85.6545 62.6058 86.7599 61.0715 86.7679C57.7155 86.7839 54.3574 86.7739 51.0014 86.7759C47.9108 86.7759 44.8201 86.7759 41.7295 86.7759L41.7315 86.7719Z" fill="white"/>
        <path d="M41.7311 99.7668C35.5178 99.7668 29.3026 99.7728 23.0894 99.7568C22.5367 99.7568 21.9541 99.689 21.4393 99.5034C20.1205 99.0286 19.6795 98.2245 19.7753 96.6941C19.8451 95.5828 20.5155 94.8026 21.7167 94.5173C22.1955 94.4036 22.6983 94.3377 23.1912 94.3377C35.5518 94.3277 47.9144 94.3198 60.275 94.3537C61.0671 94.3557 61.953 94.5253 62.6294 94.9104C63.6789 95.5089 63.9722 96.756 63.621 97.993C63.3716 98.8709 62.2762 99.679 61.1689 99.7469C60.4745 99.7908 59.7742 99.7648 59.0758 99.7648C53.2936 99.7648 47.5113 99.7648 41.7311 99.7648V99.7668Z" fill="white"/>
        <path d="M41.7335 107.355C48.0784 107.355 54.4253 107.351 60.7702 107.357C62.8214 107.359 63.8469 108.47 63.6793 110.471C63.5955 111.455 62.8194 112.359 61.8437 112.537C61.2591 112.644 60.6605 112.726 60.0659 112.726C47.839 112.736 35.614 112.74 23.3871 112.726C22.2718 112.726 21.1205 112.758 20.3025 111.726C19.6021 110.843 19.5822 109.835 19.9433 108.903C20.3244 107.919 21.1923 107.369 22.2977 107.363C24.4566 107.349 26.6174 107.355 28.7763 107.355C33.096 107.355 37.4138 107.355 41.7335 107.355Z" fill="white"/>
        <path d="M41.7434 133.307C48.222 133.307 54.7006 133.319 61.1812 133.295C62.3385 133.291 63.1386 133.87 63.5216 134.805C63.8788 135.679 63.9566 136.753 63.2124 137.529C62.7874 137.972 62.1529 138.259 61.5623 138.483C61.1812 138.626 60.7083 138.532 60.2774 138.532C47.8848 138.532 35.4903 138.534 23.0978 138.528C22.5032 138.528 21.8767 138.552 21.322 138.381C20.1927 138.032 19.5821 136.683 19.8016 135.268C19.9572 134.263 21.0167 133.325 22.1081 133.323C28.6526 133.309 35.199 133.317 41.7434 133.317V133.309V133.307Z" fill="white"/>
        <path d="M41.7333 125.574C35.516 125.574 29.2988 125.578 23.0836 125.566C22.4571 125.566 21.7947 125.576 21.214 125.38C20.1346 125.017 19.5919 123.704 19.8034 122.293C19.9471 121.34 21.0026 120.418 22.0361 120.348C22.2356 120.334 22.4351 120.336 22.6347 120.336C35.3684 120.336 48.1001 120.334 60.8338 120.346C61.3167 120.346 61.8494 120.388 62.2704 120.593C63.4975 121.192 63.9584 122.355 63.6432 123.78C63.4137 124.819 62.432 125.552 61.0813 125.556C54.898 125.578 48.7147 125.57 42.5314 125.574C42.266 125.574 41.9986 125.574 41.7333 125.574Z" fill="white"/>
    </g>
    <defs>
        <clipPath id="clip0_162_20">
            <rect width="145.165" height="180" fill="white" transform="translate(0.4375)"/>
        </clipPath>
    </defs>
</svg>
