<svg width="167" height="181" viewBox="0 0 167 181" fill="none"
    xmlns="http://www.w3.org/2000/svg">
    <path d="M162.061 159.205C156.777 153.848 151.499 148.48 146.061 143.277C145.154 142.48 144.438 141.49 143.966 140.378C143.494 139.267 143.278 138.064 143.334 136.858C143.434 112.641 143.395 88.424 143.395 64.208C143.395 52.452 143.449 40.6959 143.371 28.9409C143.328 22.5039 139.161 18.4288 132.737 18.2988C130.524 18.2548 128.309 18.292 125.52 18.292C125.52 15.579 125.593 13.3528 125.506 11.1328C125.243 4.41078 121.318 0.42287 114.554 0.39987C91.6244 0.32287 68.6944 0.377854 45.7644 0.358854C44.177 0.302172 42.5952 0.576461 41.1195 1.16403C39.6437 1.7516 38.3064 2.63968 37.1924 3.77194C26.1614 14.8549 14.9924 25.8009 4.12639 37.0449C2.22452 39.0797 1.09272 41.7148 0.926378 44.4951C0.720378 80.3481 0.759374 116.203 0.809374 152.058C0.817374 158.116 4.97539 162.177 11.0094 162.35C13.4364 162.419 15.8664 162.361 18.5684 162.361C18.5684 164.104 18.5684 165.377 18.5684 166.65C18.5814 177.038 21.8544 180.295 32.3054 180.296C64.7604 180.296 97.2154 180.232 129.669 180.357C135.484 180.38 140.402 179.363 142.988 173.264C144.065 174.289 144.827 175.009 145.588 175.733C151.05 180.96 158.068 181.152 162.85 176.206C167.452 171.444 167.16 164.374 162.061 159.205ZM125.561 25.7719C125.606 25.1818 125.684 24.5948 125.793 24.0132C128.473 24.0132 131.226 23.5958 133.753 24.1718C135.233 24.5088 136.472 26.3339 137.571 27.6899C137.987 28.2029 137.74 29.2801 137.74 30.1001C137.746 63.9294 137.746 97.7579 137.74 131.586C137.74 132.365 137.676 133.144 137.64 133.922L136.652 134.422C135.74 133.201 134.756 132.034 133.707 130.928C133.082 130.328 131.836 129.543 131.336 129.789C127.619 131.617 126.215 128.724 125.015 127.427C127.315 120.266 129.992 113.761 131.438 106.992C133.444 97.5922 131.138 88.6008 126.907 80.0678C126.164 78.7605 125.716 77.3062 125.595 75.8071C125.508 59.1311 125.544 42.4509 125.558 25.7719H125.561ZM131.488 136.487L135.14 140.335L126.452 148.687L122.976 145.074L131.488 136.487ZM121.749 138.113L117.854 133.842L120.316 131.112L123.982 135.833C123.6 136.222 122.737 137.099 121.746 138.113H121.749ZM126.421 101.079C126.414 108.824 124.107 116.392 119.794 122.825C115.481 129.258 109.355 134.266 102.194 137.214C95.0319 140.162 87.1562 140.918 79.5643 139.387C71.9724 137.855 65.006 134.104 59.5477 128.609C54.0895 123.115 50.385 116.124 48.9036 108.522C47.4223 100.92 48.2307 93.0492 51.2265 85.9072C54.2223 78.7652 59.2706 72.6731 65.7319 68.4028C72.1932 64.1325 79.7766 61.8763 87.5214 61.9199C97.863 61.9844 107.759 66.1393 115.047 73.4765C122.335 80.8138 126.423 90.7373 126.418 101.079H126.421ZM38.7724 11.0171C38.8314 11.8081 38.9634 12.7661 38.9654 13.7251C38.9834 20.4251 38.9354 27.117 38.9914 33.812C39.0164 36.823 37.6624 38.588 34.6594 38.624C26.9364 38.716 19.2114 38.6548 11.1054 38.6548L38.7724 11.0171ZM12.5344 156.709C7.91738 156.709 6.45038 155.354 6.44838 150.994C6.42905 116.2 6.42738 81.4061 6.44338 46.6128C6.44338 46.0358 6.5124 45.4602 6.5844 44.3242H10.3354C18.2134 44.3242 26.0914 44.3701 33.9684 44.3081C40.8914 44.2531 44.5994 40.4801 44.6204 33.5551C44.6474 24.5291 44.6264 15.5031 44.6264 6.20407C46.2004 6.13507 47.4554 6.03319 48.7094 6.03219C69.9914 6.02286 91.2734 6.02286 112.555 6.03219C118.737 6.03219 119.855 7.12413 119.864 13.1391C119.875 30.7711 119.875 48.4044 119.864 66.039V70.0322C107.49 58.3612 93.5644 54.0041 77.6344 57.2871C67.5076 59.3806 58.4708 65.0446 52.1724 73.2461C45.7226 81.3777 42.3121 91.5046 42.529 101.881C42.7459 112.258 46.5765 122.234 53.3604 130.089C66.7184 145.769 91.4324 151.781 113.066 137.689L117.151 142.318C115.097 144.339 115.751 146.355 117.915 148.053C120.009 149.694 120.669 152.011 119.248 153.922C118.616 154.689 117.836 155.322 116.955 155.782C116.073 156.243 115.108 156.521 114.117 156.602C99.3054 156.812 84.4894 156.722 69.6744 156.722C50.6291 156.719 31.5824 156.714 12.5344 156.709ZM137.282 171.439C136.89 172.688 135.189 173.804 133.815 174.383C132.602 174.894 131.042 174.628 129.635 174.628C97.4421 174.637 65.2484 174.64 33.0544 174.635C24.7894 174.635 24.1674 174.021 24.2344 165.882C24.2434 164.852 24.3344 163.823 24.4114 162.373H28.6884C56.6524 162.373 84.6164 162.305 112.579 162.431C118.099 162.455 122.572 161.207 125.185 155.083C129.285 159.275 133.04 162.84 136.412 166.737C136.888 167.411 137.212 168.181 137.362 168.993C137.512 169.804 137.485 170.639 137.282 171.439ZM158.752 172.261C158.239 172.834 157.614 173.297 156.917 173.623C156.22 173.949 155.464 174.13 154.695 174.157C153.926 174.183 153.16 174.054 152.442 173.777C151.724 173.5 151.069 173.08 150.517 172.544C143.969 166.181 137.599 159.634 131.136 153.138C134.046 150.178 136.662 147.516 139.336 144.79C145.914 151.28 152.564 157.69 159.012 164.29C160.018 165.39 160.553 166.839 160.505 168.329C160.456 169.818 159.827 171.229 158.752 172.261Z" fill="#CCCCCC"/>
    <path d="M62.5012 45.172C69.3112 45.063 76.1252 45.1393 82.9382 45.1393C89.8672 45.1393 96.7982 45.0751 103.727 45.1681C106.711 45.2081 108.046 43.9511 108.018 40.9821C107.966 35.3474 107.966 29.7117 108.018 24.0743C108.049 21.1133 106.726 19.8241 103.754 19.8351C90.0122 19.8844 76.2699 19.8822 62.5272 19.8282C59.4152 19.8142 58.0062 21.0481 58.0642 24.2281C58.1656 29.7455 58.1656 35.264 58.0642 40.7833C58.0122 43.9343 59.3492 45.223 62.5012 45.172ZM63.9652 25.7433H102.048V39.4801C89.7842 39.4801 77.8162 39.4803 65.8482 39.4733C65.2852 39.4733 64.7222 39.3731 63.9642 39.2921L63.9652 25.7433Z" fill="#CCCCCC"/>
    <path d="M53.335 137.171C42.9004 137.159 32.465 137.163 22.029 137.182C20.129 137.182 18.402 137.69 18.422 140.057C18.443 142.45 20.188 142.807 22.094 142.808C27.37 142.814 32.6464 142.814 37.9231 142.808C43.0821 142.808 48.2511 142.989 53.3931 142.689C54.7311 142.611 56.893 141.208 57.093 140.129C57.518 137.733 55.375 137.173 53.335 137.171Z" fill="#CCCCCC"/>
    <path d="M22.5553 64.7237C27.5973 64.7407 32.6393 64.7237 37.6823 64.7237C42.7253 64.7237 47.7673 64.7237 52.8093 64.7237C54.8943 64.7237 57.1563 64.5814 57.1983 61.8784C57.2403 59.0914 54.9543 59.0654 52.8743 59.0664C42.7896 59.0744 32.7049 59.0771 22.6203 59.0738C20.7043 59.0738 18.5663 58.9857 18.4433 61.6367C18.3123 64.4467 20.4343 64.7157 22.5553 64.7237Z" fill="#CCCCCC"/>
    <path d="M21.4392 123.223C27.3082 123.486 33.2012 123.508 39.0682 123.223C40.2212 123.167 41.2922 121.404 42.4012 120.428C41.2462 119.528 40.1782 118.02 38.9202 117.84C36.1099 117.602 33.2863 117.562 30.4702 117.719C27.5372 117.567 24.5972 117.612 21.6702 117.854C20.4802 118.018 19.4883 119.615 18.4062 120.56C19.4132 121.489 20.3892 123.176 21.4392 123.223Z" fill="#CCCCCC"/>
    <path d="M21.4374 84.0134C24.3653 84.2388 27.3044 84.2803 30.2374 84.1375V84.1492C33.1703 84.3075 36.1105 84.2645 39.0374 84.0203C40.2584 83.8493 41.2814 82.2626 42.3954 81.3206C41.3634 80.3916 40.3644 78.7054 39.2954 78.6594C33.3114 78.4014 27.3044 78.4052 21.3204 78.6712C20.3074 78.7162 19.3704 80.4714 18.3984 81.4314C19.4064 82.3314 20.3324 83.8724 21.4374 84.0134Z" fill="#CCCCCC"/>
    <path d="M21.3874 103.616C23.4024 104.056 25.5874 103.74 27.6944 103.74C30.0331 103.886 32.3797 103.842 34.7114 103.609C35.7644 103.431 36.6014 101.977 37.5354 101.1C36.5954 100.108 35.7104 98.3314 34.7044 98.2594C30.2591 97.9451 25.7975 97.9398 21.3514 98.2427C20.3124 98.3127 19.3814 99.9985 18.4004 100.942C19.3874 101.873 20.2514 103.368 21.3874 103.616Z" fill="#CCCCCC"/>
    <path d="M77.937 120.624C77.013 120.624 75.808 119.801 74.637 118.368C70.681 113.542 66.694 108.509 62.448 102.983C61.5126 101.94 61.0035 100.584 61.022 99.1831C61.0903 98.7622 61.248 98.3607 61.4845 98.0059C61.721 97.651 62.0308 97.351 62.393 97.126C62.9552 96.6472 63.6603 96.3683 64.398 96.333C65.123 96.4314 65.8201 96.6778 66.4458 97.0571C67.0715 97.4365 67.6124 97.9407 68.035 98.5381C69.176 99.8771 70.3 101.289 71.602 102.925C72.268 103.762 72.975 104.651 73.748 105.609L78.471 111.467L83.783 106.138C86.0563 103.859 88.2933 101.609 90.494 99.3872C95.75 94.0922 100.714 89.0873 105.804 84.0923C106.574 83.2036 107.648 82.6353 108.816 82.5C109.355 82.5166 109.879 82.6789 110.333 82.9692C112.521 84.2562 112.467 85.3982 112.206 86.5532C111.851 87.709 111.216 88.759 110.358 89.6108C101.339 98.8548 91.858 108.358 81.366 118.663C80.4916 119.7 79.2783 120.395 77.941 120.623L77.937 120.624Z" fill="#CCCCCC"/>
</svg>
