<svg width="219" height="181" viewBox="0 0 219 181" fill="none"
    xmlns="http://www.w3.org/2000/svg">
    <path d="M85.2108 140.221C74.8338 146.688 63.8109 148.935 51.9229 145.632C48.4069 144.655 47.7129 147.832 46.1999 149.562C44.3129 151.722 42.7389 153.946 39.5669 151.586C33.0399 159.633 26.6469 167.544 20.2199 175.427C15.8329 180.808 9.77292 181.881 4.99892 178.183C0.00592422 174.315 -0.387156 168.098 4.11684 162.483C9.86184 155.318 15.7449 148.262 21.3959 141.024C22.1769 140.024 21.7958 138.188 22.2528 136.844C22.9408 134.844 23.5328 132.644 24.8308 131.074C26.9308 128.542 27.4419 126.616 25.9099 123.289C21.7542 114.043 21.2497 103.567 24.4977 93.9651C27.7457 84.3629 34.5057 76.3448 43.4207 71.5203C52.3357 66.6958 62.7457 65.422 72.5608 67.9549C82.376 70.4877 90.8697 76.6396 96.3369 85.1756C97.0149 86.2216 97.6979 87.2635 98.3369 88.2385C98.6654 88.1997 98.9908 88.139 99.3109 88.0559C106.183 85.5819 107.587 80.6739 107.323 73.6619C106.714 57.4339 107.105 41.1677 107.081 24.9177C107.001 24.4058 106.885 23.9 106.733 23.4046C105.419 23.4046 103.933 23.4879 102.458 23.3909C99.5342 23.2311 96.7836 21.9538 94.7747 19.8235C92.7658 17.6932 91.652 14.8727 91.6638 11.9446C91.5834 9.00605 92.6681 6.15505 94.6813 4.01296C96.6945 1.87087 99.473 0.611383 102.411 0.509541C116.965 0.313541 131.521 0.309512 146.078 0.496846C149.016 0.582065 151.803 1.8159 153.841 3.93337C155.879 6.05084 157.005 8.88278 156.978 11.8216C157.001 14.7485 155.907 17.5741 153.918 19.7224C151.93 21.8707 149.198 23.18 146.278 23.3836C144.895 23.4836 143.499 23.3987 141.797 23.3987C141.672 24.9157 141.485 26.1338 141.484 27.3518C141.465 44.8758 141.522 62.4006 141.415 79.9246C141.297 81.0171 141.531 82.119 142.083 83.0691C142.635 84.0192 143.476 84.7681 144.484 85.2068C152.659 89.6225 159.153 96.6076 162.96 105.083C166.768 113.559 167.678 123.053 165.55 132.097C163.421 141.142 158.373 149.234 151.185 155.122C143.998 161.011 135.07 164.367 125.784 164.674C109.384 165.106 96.6929 157.86 87.8559 143.99C87.1759 142.923 86.5699 141.808 85.9169 140.722C85.8499 140.609 85.6928 140.555 85.2108 140.221ZM97.6109 107.094C97.6487 100.14 95.622 93.3319 91.7875 87.531C87.953 81.7302 82.4832 77.1975 76.0709 74.5076C69.6586 71.8177 62.5923 71.0916 55.7669 72.4207C48.9414 73.7498 42.6639 77.0745 37.7294 81.9739C32.7949 86.8733 29.4255 93.1268 28.0478 99.9426C26.67 106.758 27.3461 113.83 29.9903 120.261C32.6344 126.692 37.1278 132.194 42.9011 136.07C48.6745 139.946 55.4683 142.021 62.4219 142.032C71.7121 142.035 80.6261 138.363 87.2185 131.817C93.811 125.271 97.5475 116.383 97.6109 107.094ZM112.654 80.3767C111.894 86.6667 111.894 86.6669 106.521 89.5769C100.751 92.7039 100.646 92.7246 102.055 99.6526C102.464 101.665 103.138 104.535 104.58 105.272C112.367 109.253 118.28 115.13 123.342 122.053C126.974 127.022 130.298 127.914 135.548 124.539C143.192 119.626 150.903 115.072 160.827 114.739C157.727 102.354 150.94 93.7095 139.882 88.6135C137.126 87.3436 136.268 85.7928 136.291 82.8328C136.428 64.7528 136.361 46.6706 136.363 28.5896V23.8069H112.476V34.6785C115.896 34.5348 119.321 34.5753 122.737 34.7996C124.037 34.9426 125.18 36.4497 126.395 37.3357C125.143 38.1467 123.948 39.5215 122.626 39.6565C119.258 39.863 115.881 39.9004 112.509 39.7678V48.2356C114.448 48.2356 116.2 47.9135 117.76 48.3235C119.396 48.7545 121.999 49.7118 122.16 50.7488C122.607 53.6668 119.895 53.2489 117.992 53.3259C116.21 53.3969 114.423 53.3406 112.518 53.3406V61.7717C115.826 61.6106 119.14 61.6527 122.443 61.8977C123.853 62.0767 125.089 63.6246 126.404 64.5506C125.11 65.3216 123.868 66.6256 122.51 66.7586C119.21 67.0836 115.864 66.8645 112.55 66.8645V75.3328C114.892 75.1754 117.243 75.2139 119.578 75.4485C120.627 75.6335 121.46 77.0485 122.39 77.9055C121.455 78.7285 120.611 80.0869 119.566 80.2639C117.268 80.4885 114.957 80.5261 112.654 80.3767ZM102.981 110.377C102.6 111.788 102.22 112.833 102.041 113.911C100.85 121.489 97.3625 128.519 92.0489 134.052C90.1289 136.064 90.0829 137.529 91.3429 139.865C98.2999 152.765 113.132 161.019 127.101 159.545C143.184 157.845 156.03 147.566 160.079 132.726C161.162 128.756 161.264 124.519 161.995 119.074C156.774 120.516 152.611 121.198 148.86 122.828C144.76 124.611 141.096 127.377 137.139 129.528C130.113 133.34 124.232 131.894 119.526 125.478C115.088 119.427 110.121 113.939 102.98 110.379L102.981 110.377ZM123.909 18.3225C130.679 18.3225 137.448 18.3548 144.218 18.3118C148.98 18.2818 151.951 15.6979 151.868 11.7849C151.788 8.01493 148.927 5.53672 144.38 5.52272C130.98 5.48139 117.58 5.48139 104.18 5.52272C99.6318 5.53772 96.8119 8.02276 96.7659 11.8338C96.7179 15.8178 99.5829 18.2808 104.442 18.3108C110.932 18.3548 117.42 18.325 123.908 18.325L123.909 18.3225ZM27.6089 141.635C20.6619 150.204 13.9798 158.369 7.39785 166.612C5.31985 169.212 5.50393 171.989 8.14993 174.061C10.8169 176.151 13.5009 175.508 15.5849 172.971C22.2679 164.834 28.8849 156.64 35.6939 148.261L27.6089 141.635ZM44.3479 143.581L30.4479 132.224L28.0829 135.257L41.8938 146.45L44.3479 143.581Z" fill="#CCCCCC"/>
    <path d="M172.899 53.2466C167.499 53.8976 166.845 51.0034 167.129 47.0464C167.315 43.8042 167.321 40.5545 167.149 37.3116C167.041 34.5066 168.072 33.0936 171.022 33.1016C185.422 33.1416 199.82 33.1416 214.214 33.1016C217.183 33.0926 218.171 34.5387 218.063 37.3287C217.886 40.5714 217.893 43.8215 218.084 47.0635C218.384 51.0305 217.684 53.8827 212.333 53.2637V58.5245C212.333 84.6375 212.391 110.75 212.302 136.863C212.261 148.809 203.997 157.389 192.807 157.463C190.223 157.532 187.652 157.082 185.245 156.139C182.838 155.196 180.645 153.78 178.795 151.974C176.945 150.169 175.476 148.01 174.476 145.627C173.475 143.243 172.962 140.684 172.968 138.099C172.779 121.727 172.905 105.352 172.9 88.9776C172.899 77.2826 172.899 65.5826 172.899 53.2466ZM177.999 121.079C177.999 126.255 177.991 131.033 178.005 135.811C178.005 137.078 177.999 138.352 178.127 139.61C178.526 143.07 180.164 146.267 182.739 148.611C185.314 150.955 188.651 152.287 192.132 152.359C199.493 152.53 206.218 147.559 206.861 140.543C207.447 134.169 206.985 127.699 206.985 121.079H177.999ZM207.026 115.654V90.1914H178.353V115.654H207.026ZM177.999 53.3965V61.4336C177.999 68.4916 179.699 69.8495 186.728 68.3335C187.7 68.1739 188.625 67.8039 189.438 67.2496C191.22 65.8496 192.638 66.3156 194.738 66.9156C198.077 67.8666 201.799 67.5944 205.355 67.5494C205.978 67.5414 207.075 66.1326 207.113 65.3296C207.297 61.4296 207.196 57.5235 207.196 53.3975L177.999 53.3965ZM212.738 38.4966H172.579V47.8213H212.738V38.4966ZM206.954 73.3067C197.224 72.8947 187.754 72.6713 178.239 73.9063V84.4473H206.954V73.3067Z" fill="#CCCCCC"/>
</svg>
